<mxfile host="www.draw.io" modified="2019-12-11T10:39:35.145Z" agent="Mozilla/5.0 (Windows NT 10.0; Win64; x64) AppleWebKit/537.36 (KHTML, like Gecko) Chrome/78.0.3904.108 Safari/537.36" etag="l1wkfTutH-ld7CSgd9iF" version="12.3.9" type="github" pages="1">
  <diagram id="lIEj3yTJJtI_6PWhw0XE" name="第 1 页">
    <mxGraphModel dx="768" dy="423" grid="1" gridSize="10" guides="1" tooltips="1" connect="0" arrows="1" fold="1" page="1" pageScale="1" pageWidth="827" pageHeight="1169" math="0" shadow="0">
      <root>
        <mxCell id="0"/>
        <mxCell id="1" parent="0"/>
        <mxCell id="SwAw4xg88gmh7lAkYRVZ-1" value="" style="rounded=0;whiteSpace=wrap;html=1;" vertex="1" parent="1">
          <mxGeometry x="380" y="150" width="230" height="240" as="geometry"/>
        </mxCell>
        <mxCell id="SwAw4xg88gmh7lAkYRVZ-2" value="自动泊车" style="rounded=0;whiteSpace=wrap;html=1;" vertex="1" parent="1">
          <mxGeometry x="390" y="280" width="60" height="40" as="geometry"/>
        </mxCell>
        <mxCell id="SwAw4xg88gmh7lAkYRVZ-3" value="车机" style="text;html=1;strokeColor=none;fillColor=none;align=center;verticalAlign=middle;whiteSpace=wrap;rounded=0;" vertex="1" parent="1">
          <mxGeometry x="465" y="190" width="40" height="20" as="geometry"/>
        </mxCell>
        <mxCell id="SwAw4xg88gmh7lAkYRVZ-12" value="push进程" style="rounded=0;whiteSpace=wrap;html=1;" vertex="1" parent="1">
          <mxGeometry x="440" y="170" width="90" height="40" as="geometry"/>
        </mxCell>
        <mxCell id="SwAw4xg88gmh7lAkYRVZ-13" value="车控" style="rounded=0;whiteSpace=wrap;html=1;" vertex="1" parent="1">
          <mxGeometry x="465" y="280" width="60" height="40" as="geometry"/>
        </mxCell>
        <mxCell id="SwAw4xg88gmh7lAkYRVZ-14" style="edgeStyle=orthogonalEdgeStyle;rounded=0;orthogonalLoop=1;jettySize=auto;html=1;exitX=0.5;exitY=1;exitDx=0;exitDy=0;" edge="1" parent="1" source="SwAw4xg88gmh7lAkYRVZ-13" target="SwAw4xg88gmh7lAkYRVZ-13">
          <mxGeometry relative="1" as="geometry"/>
        </mxCell>
        <mxCell id="SwAw4xg88gmh7lAkYRVZ-15" value="远程诊断" style="rounded=0;whiteSpace=wrap;html=1;" vertex="1" parent="1">
          <mxGeometry x="540" y="280" width="60" height="40" as="geometry"/>
        </mxCell>
        <mxCell id="SwAw4xg88gmh7lAkYRVZ-16" value="car service" style="rounded=0;whiteSpace=wrap;html=1;" vertex="1" parent="1">
          <mxGeometry x="390" y="340" width="210" height="30" as="geometry"/>
        </mxCell>
        <mxCell id="SwAw4xg88gmh7lAkYRVZ-17" value="" style="endArrow=none;html=1;" edge="1" parent="1">
          <mxGeometry width="50" height="50" relative="1" as="geometry">
            <mxPoint x="130" y="420" as="sourcePoint"/>
            <mxPoint x="690" y="420" as="targetPoint"/>
          </mxGeometry>
        </mxCell>
        <mxCell id="SwAw4xg88gmh7lAkYRVZ-18" value="z" style="endArrow=none;html=1;" edge="1" parent="1">
          <mxGeometry width="50" height="50" relative="1" as="geometry">
            <mxPoint x="130" y="490" as="sourcePoint"/>
            <mxPoint x="680" y="490" as="targetPoint"/>
          </mxGeometry>
        </mxCell>
        <mxCell id="SwAw4xg88gmh7lAkYRVZ-19" value="" style="endArrow=none;html=1;" edge="1" parent="1">
          <mxGeometry width="50" height="50" relative="1" as="geometry">
            <mxPoint x="130" y="560" as="sourcePoint"/>
            <mxPoint x="680" y="560" as="targetPoint"/>
          </mxGeometry>
        </mxCell>
        <mxCell id="SwAw4xg88gmh7lAkYRVZ-22" value="" style="endArrow=classic;startArrow=classic;html=1;" edge="1" parent="1">
          <mxGeometry width="50" height="50" relative="1" as="geometry">
            <mxPoint x="170" y="490" as="sourcePoint"/>
            <mxPoint x="170" y="420" as="targetPoint"/>
          </mxGeometry>
        </mxCell>
        <mxCell id="SwAw4xg88gmh7lAkYRVZ-23" value="" style="endArrow=classic;startArrow=classic;html=1;" edge="1" parent="1">
          <mxGeometry width="50" height="50" relative="1" as="geometry">
            <mxPoint x="230" y="560" as="sourcePoint"/>
            <mxPoint x="230" y="490" as="targetPoint"/>
          </mxGeometry>
        </mxCell>
        <mxCell id="SwAw4xg88gmh7lAkYRVZ-24" value="gateway" style="text;html=1;strokeColor=none;fillColor=none;align=center;verticalAlign=middle;whiteSpace=wrap;rounded=0;" vertex="1" parent="1">
          <mxGeometry x="170" y="450" width="40" height="20" as="geometry"/>
        </mxCell>
        <mxCell id="SwAw4xg88gmh7lAkYRVZ-25" value="gateway" style="text;html=1;strokeColor=none;fillColor=none;align=center;verticalAlign=middle;whiteSpace=wrap;rounded=0;" vertex="1" parent="1">
          <mxGeometry x="190" y="510" width="40" height="20" as="geometry"/>
        </mxCell>
        <mxCell id="SwAw4xg88gmh7lAkYRVZ-26" value="can总线" style="text;html=1;strokeColor=none;fillColor=none;align=center;verticalAlign=middle;whiteSpace=wrap;rounded=0;" vertex="1" parent="1">
          <mxGeometry x="70" y="410" width="60" height="20" as="geometry"/>
        </mxCell>
        <mxCell id="SwAw4xg88gmh7lAkYRVZ-27" value="can总线" style="text;html=1;strokeColor=none;fillColor=none;align=center;verticalAlign=middle;whiteSpace=wrap;rounded=0;" vertex="1" parent="1">
          <mxGeometry x="70" y="480" width="60" height="20" as="geometry"/>
        </mxCell>
        <mxCell id="SwAw4xg88gmh7lAkYRVZ-28" value="can总线" style="text;html=1;strokeColor=none;fillColor=none;align=center;verticalAlign=middle;whiteSpace=wrap;rounded=0;" vertex="1" parent="1">
          <mxGeometry x="70" y="550" width="60" height="20" as="geometry"/>
        </mxCell>
        <mxCell id="SwAw4xg88gmh7lAkYRVZ-30" value="电控门窗ecu" style="rounded=1;whiteSpace=wrap;html=1;" vertex="1" parent="1">
          <mxGeometry x="267" y="584" width="70" height="26" as="geometry"/>
        </mxCell>
        <mxCell id="SwAw4xg88gmh7lAkYRVZ-31" value="&amp;nbsp;故障诊断ecu" style="rounded=1;whiteSpace=wrap;html=1;" vertex="1" parent="1">
          <mxGeometry x="350" y="520" width="70" height="26" as="geometry"/>
        </mxCell>
        <mxCell id="SwAw4xg88gmh7lAkYRVZ-32" value="&amp;nbsp;牵引力控制ecu" style="rounded=1;whiteSpace=wrap;html=1;" vertex="1" parent="1">
          <mxGeometry x="484" y="444" width="70" height="26" as="geometry"/>
        </mxCell>
        <mxCell id="SwAw4xg88gmh7lAkYRVZ-33" value="" style="endArrow=classic;startArrow=classic;html=1;exitX=0.5;exitY=0;exitDx=0;exitDy=0;" edge="1" parent="1" source="SwAw4xg88gmh7lAkYRVZ-32">
          <mxGeometry width="50" height="50" relative="1" as="geometry">
            <mxPoint x="70" y="680" as="sourcePoint"/>
            <mxPoint x="519" y="420" as="targetPoint"/>
          </mxGeometry>
        </mxCell>
        <mxCell id="SwAw4xg88gmh7lAkYRVZ-34" value="" style="endArrow=classic;startArrow=classic;html=1;" edge="1" parent="1">
          <mxGeometry width="50" height="50" relative="1" as="geometry">
            <mxPoint x="390" y="520" as="sourcePoint"/>
            <mxPoint x="390" y="490" as="targetPoint"/>
          </mxGeometry>
        </mxCell>
        <mxCell id="SwAw4xg88gmh7lAkYRVZ-35" value="" style="endArrow=classic;startArrow=classic;html=1;exitX=0.5;exitY=0;exitDx=0;exitDy=0;" edge="1" parent="1" source="SwAw4xg88gmh7lAkYRVZ-30">
          <mxGeometry width="50" height="50" relative="1" as="geometry">
            <mxPoint x="70" y="680" as="sourcePoint"/>
            <mxPoint x="300" y="560" as="targetPoint"/>
          </mxGeometry>
        </mxCell>
        <mxCell id="SwAw4xg88gmh7lAkYRVZ-37" value="" style="endArrow=classic;html=1;exitX=0.5;exitY=1;exitDx=0;exitDy=0;entryX=0.5;entryY=0;entryDx=0;entryDy=0;" edge="1" parent="1" source="SwAw4xg88gmh7lAkYRVZ-12" target="SwAw4xg88gmh7lAkYRVZ-2">
          <mxGeometry width="50" height="50" relative="1" as="geometry">
            <mxPoint x="70" y="680" as="sourcePoint"/>
            <mxPoint x="120" y="630" as="targetPoint"/>
          </mxGeometry>
        </mxCell>
        <mxCell id="SwAw4xg88gmh7lAkYRVZ-39" value="" style="endArrow=classic;html=1;entryX=0.75;entryY=0;entryDx=0;entryDy=0;exitX=0.75;exitY=1;exitDx=0;exitDy=0;" edge="1" parent="1">
          <mxGeometry width="50" height="50" relative="1" as="geometry">
            <mxPoint x="508.5" y="210" as="sourcePoint"/>
            <mxPoint x="586" y="280" as="targetPoint"/>
          </mxGeometry>
        </mxCell>
        <mxCell id="SwAw4xg88gmh7lAkYRVZ-40" value="IPC" style="text;html=1;strokeColor=none;fillColor=none;align=center;verticalAlign=middle;whiteSpace=wrap;rounded=0;" vertex="1" parent="1">
          <mxGeometry x="413" y="235" width="40" height="20" as="geometry"/>
        </mxCell>
        <mxCell id="SwAw4xg88gmh7lAkYRVZ-43" value="IPC" style="text;html=1;strokeColor=none;fillColor=none;align=center;verticalAlign=middle;whiteSpace=wrap;rounded=0;" vertex="1" parent="1">
          <mxGeometry x="520" y="235" width="40" height="20" as="geometry"/>
        </mxCell>
        <mxCell id="SwAw4xg88gmh7lAkYRVZ-46" value="" style="endArrow=classic;html=1;exitX=0.75;exitY=1;exitDx=0;exitDy=0;" edge="1" parent="1" source="SwAw4xg88gmh7lAkYRVZ-3" target="SwAw4xg88gmh7lAkYRVZ-13">
          <mxGeometry width="50" height="50" relative="1" as="geometry">
            <mxPoint x="350" y="280" as="sourcePoint"/>
            <mxPoint x="290" y="360" as="targetPoint"/>
          </mxGeometry>
        </mxCell>
        <mxCell id="SwAw4xg88gmh7lAkYRVZ-47" value="IPC" style="text;html=1;strokeColor=none;fillColor=none;align=center;verticalAlign=middle;whiteSpace=wrap;rounded=0;" vertex="1" parent="1">
          <mxGeometry x="475" y="235" width="40" height="20" as="geometry"/>
        </mxCell>
        <mxCell id="SwAw4xg88gmh7lAkYRVZ-48" value="长连接系统" style="rounded=0;whiteSpace=wrap;html=1;" vertex="1" parent="1">
          <mxGeometry x="440" y="40" width="120" height="60" as="geometry"/>
        </mxCell>
        <mxCell id="SwAw4xg88gmh7lAkYRVZ-49" value="APP" style="rounded=0;whiteSpace=wrap;html=1;" vertex="1" parent="1">
          <mxGeometry x="190" y="40" width="120" height="60" as="geometry"/>
        </mxCell>
        <mxCell id="SwAw4xg88gmh7lAkYRVZ-50" value="" style="endArrow=classic;html=1;entryX=0;entryY=0.5;entryDx=0;entryDy=0;exitX=1;exitY=0.5;exitDx=0;exitDy=0;" edge="1" parent="1" source="SwAw4xg88gmh7lAkYRVZ-49" target="SwAw4xg88gmh7lAkYRVZ-48">
          <mxGeometry width="50" height="50" relative="1" as="geometry">
            <mxPoint x="110" y="380" as="sourcePoint"/>
            <mxPoint x="200" y="300" as="targetPoint"/>
          </mxGeometry>
        </mxCell>
        <mxCell id="SwAw4xg88gmh7lAkYRVZ-52" value="" style="endArrow=classic;startArrow=classic;html=1;entryX=0.45;entryY=1.011;entryDx=0;entryDy=0;entryPerimeter=0;exitX=0.5;exitY=0;exitDx=0;exitDy=0;" edge="1" parent="1" source="SwAw4xg88gmh7lAkYRVZ-1" target="SwAw4xg88gmh7lAkYRVZ-48">
          <mxGeometry width="50" height="50" relative="1" as="geometry">
            <mxPoint x="220" y="340" as="sourcePoint"/>
            <mxPoint x="330" y="300" as="targetPoint"/>
          </mxGeometry>
        </mxCell>
        <mxCell id="SwAw4xg88gmh7lAkYRVZ-53" value="TCP" style="text;html=1;strokeColor=none;fillColor=none;align=center;verticalAlign=middle;whiteSpace=wrap;rounded=0;" vertex="1" parent="1">
          <mxGeometry x="495" y="110" width="40" height="20" as="geometry"/>
        </mxCell>
        <mxCell id="SwAw4xg88gmh7lAkYRVZ-54" value="" style="endArrow=classic;startArrow=classic;html=1;entryX=0.5;entryY=1;entryDx=0;entryDy=0;" edge="1" parent="1" source="SwAw4xg88gmh7lAkYRVZ-16" target="SwAw4xg88gmh7lAkYRVZ-13">
          <mxGeometry width="50" height="50" relative="1" as="geometry">
            <mxPoint x="70" y="680" as="sourcePoint"/>
            <mxPoint x="350" y="370" as="targetPoint"/>
          </mxGeometry>
        </mxCell>
        <mxCell id="SwAw4xg88gmh7lAkYRVZ-56" value="event" style="text;html=1;strokeColor=none;fillColor=none;align=center;verticalAlign=middle;whiteSpace=wrap;rounded=0;" vertex="1" parent="1">
          <mxGeometry x="495" y="320" width="40" height="20" as="geometry"/>
        </mxCell>
        <mxCell id="SwAw4xg88gmh7lAkYRVZ-59" value="" style="endArrow=classic;startArrow=classic;html=1;entryX=0.5;entryY=1;entryDx=0;entryDy=0;" edge="1" parent="1" target="SwAw4xg88gmh7lAkYRVZ-1">
          <mxGeometry width="50" height="50" relative="1" as="geometry">
            <mxPoint x="495" y="420" as="sourcePoint"/>
            <mxPoint x="120" y="630" as="targetPoint"/>
          </mxGeometry>
        </mxCell>
        <mxCell id="SwAw4xg88gmh7lAkYRVZ-61" value="车机" style="text;html=1;strokeColor=none;fillColor=none;align=center;verticalAlign=middle;whiteSpace=wrap;rounded=0;" vertex="1" parent="1">
          <mxGeometry x="465" y="150" width="40" height="20" as="geometry"/>
        </mxCell>
        <mxCell id="SwAw4xg88gmh7lAkYRVZ-62" value="1.push进程收到指令后通过ipc转发给不同进程&lt;br&gt;2.相关功能进程调用car service控制ecu" style="shape=note;whiteSpace=wrap;html=1;backgroundOutline=1;darkOpacity=0.05;" vertex="1" parent="1">
          <mxGeometry x="70" y="630" width="390" height="100" as="geometry"/>
        </mxCell>
      </root>
    </mxGraphModel>
  </diagram>
</mxfile>
